inDegrees=no
num_controls=7
num_derivatives=13
num_iterations=140
num_multipliers=7
num_parameters=0
num_slacks=7
num_states=26
objective=0.464432
objective_accelerations=0.002541
objective_balance=0.002132
objective_effort=0.003939
objective_height=0.453761
objective_ligament=0.002060
solver_duration=2272.230193
status=Solve_Succeeded
success=true
DataType=double
version=3
OpenSimVersion=4.5
endheader
time	/jointset/ground_pelvis/pelvis_tilt/value	/jointset/ground_pelvis/pelvis_tx/value	/jointset/ground_pelvis/pelvis_ty/value	/jointset/hip_l/hip_flexion_l/value	/jointset/hip_l/hip_adduction_l/value	/jointset/hip_l/hip_rotation_l/value	/jointset/back/lumbar_extension/value	/jointset/patellofemoral_l/patellar_flexion_l/value	/jointset/knee_l/knee_flexion_l/value	/jointset/knee_l/knee_adduction_l/value	/jointset/knee_l/knee_rotation_l/value	/jointset/ankle_l/ankle_angle_l/value	/jointset/subtalar_l/subtalar_angle_l/value	/jointset/ground_pelvis/pelvis_tilt/speed	/jointset/ground_pelvis/pelvis_tx/speed	/jointset/ground_pelvis/pelvis_ty/speed	/jointset/hip_l/hip_flexion_l/speed	/jointset/hip_l/hip_adduction_l/speed	/jointset/hip_l/hip_rotation_l/speed	/jointset/back/lumbar_extension/speed	/jointset/patellofemoral_l/patellar_flexion_l/speed	/jointset/knee_l/knee_flexion_l/speed	/jointset/knee_l/knee_adduction_l/speed	/jointset/knee_l/knee_rotation_l/speed	/jointset/ankle_l/ankle_angle_l/speed	/jointset/subtalar_l/subtalar_angle_l/speed	/forceset/tau_hip_flexion_l	/forceset/tau_hip_adduction_l	/forceset/tau_hip_rotation_l	/forceset/tau_knee_flexion_l	/forceset/tau_ankle_angle_l	/forceset/tau_subtalar_angle_l	/forceset/tau_lumbar_extension	lambda_cid13_p0	lambda_cid13_p1	lambda_cid13_p2	lambda_cid13_p3	lambda_cid13_p4	lambda_cid13_p5	lambda_cid14_p0	/jointset/ground_pelvis/pelvis_tilt/accel	/jointset/ground_pelvis/pelvis_tx/accel	/jointset/ground_pelvis/pelvis_ty/accel	/jointset/hip_l/hip_flexion_l/accel	/jointset/hip_l/hip_adduction_l/accel	/jointset/hip_l/hip_rotation_l/accel	/jointset/back/lumbar_extension/accel	/jointset/patellofemoral_l/patellar_flexion_l/accel	/jointset/knee_l/knee_flexion_l/accel	/jointset/knee_l/knee_adduction_l/accel	/jointset/knee_l/knee_rotation_l/accel	/jointset/ankle_l/ankle_angle_l/accel	/jointset/subtalar_l/subtalar_angle_l/accel	gamma_cid13_p0	gamma_cid13_p1	gamma_cid13_p2	gamma_cid13_p3	gamma_cid13_p4	gamma_cid13_p5	gamma_cid14_p0
0	-0.04610924906996089	0.07182929974482538	0.8962205228642457	0.1955287580552426	-0.3190805002311044	-0.5401415510953919	-0.1379045077516729	0.07015288079084997	0.07015288079084844	-0.1745326089123654	-0.1717906169499891	-0.06701059314715049	0.007600009821614895	0	0	0	0	0	0	0	0	0	0	0	0	0	0.05488547360587273	-0.06109474475765887	-0.03580435783306005	-0.2075545717280665	0.2038387471498818	-0.02737390242031866	0.001333156685524888	28.11017371817439	0.9497358734752657	6.385372617854841	-22.03295020196337	-543.5966269959662	-68.06170718561742	-41.48725782802268	-0.2611652627242215	0.1109290652290272	-0.05244483166496476	0.5403778246980151	-0.1982447148160514	0.3527553172584509	-1.271769969902225	0.7795961066602525	0.7795961066602358	0.03999881053377394	0.07383267067960787	0.5077970273843557	0.06016684030191375	1.747314826160673e-10	1.776827769372783e-09	-8.324989878842168e-10	7.551342545712584e-12	-1.547333353611383e-09	7.802550124012096e-11	4.291498927277043e-10
0.01	-0.04612239539422623	0.07183522054066148	0.8962179496556477	0.1955547743467926	-0.3190904180534379	-0.5401237164340132	-0.1379684896760921	0.07019082638035966	0.07019082638034696	-0.1745311716086929	-0.1717863032120715	-0.06698528477775668	0.007602965277324181	-0.002673587861896866	0.001218609767467822	-0.0005154899982614626	0.005186523240655143	-0.001992438137466279	0.003554010998493447	-0.01280501784267583	0.00756506436992646	0.007565064369926683	0.0002531056610938004	0.0008643116492616932	0.005085081034101539	0.0005944612429504064	0.05667597042566405	-0.07376086351610746	-0.03624346198436382	-0.2114998875065231	0.2039965786187577	-0.01828115858413206	6.893876324343614e-05	28.50564436303844	-2.739097625392396	6.597231888885045	-23.36850465731598	-543.6910566017327	-76.60525779623649	-41.48781390445524	-0.2771040611539259	0.1324945239968078	-0.05122863525394026	0.5052792292935282	-0.2010746728010446	0.3547860402826276	-1.286162635093989	0.7413534866954842	0.7413534866955048	0.01281341805263744	0.09296474728293314	0.5123747773236835	0.05959109699896761	-6.699573236867866e-10	1.394428392977889e-09	8.443066324640451e-10	4.180394829054957e-10	-1.475045951723486e-09	-6.254653997886186e-10	-2.241951921464112e-11
0.02	-0.04616360729976351	0.07185436095247037	0.896210196036797	0.1956321538018751	-0.3191205265190615	-0.5400707292528273	-0.1381607807676632	0.07030370099046622	0.0703037009904663	-0.174528233853461	-0.1717732994906279	-0.06690842337084195	0.00761196641160427	-0.005613116253017144	0.002643923194562482	-0.001036082050555362	0.01027263270308553	-0.004038128658502489	0.007030503962496685	-0.02566183343108496	0.01498580412131346	0.0149858041213123	0.0003000902883821047	0.001737996707863433	0.01031060750422047	0.001209135714181783	0.05846646724567059	-0.08642698227456438	-0.03668256613554186	-0.2154452032849495	0.2041544100876376	-0.009188414747953424	-0.001195279158850116	28.90678981661835	-6.428388143702659	6.808551110513389	-24.73406735054612	-543.7143479293286	-85.13310407895914	-41.48946310836286	-0.3143533685689145	0.1522697971543745	-0.05346524247148212	0.5202950690529263	-0.2088951915303564	0.3372517103603931	-1.282129519048799	0.7507311829523685	0.7507311829520316	-0.001225396228060237	0.07570735254758532	0.5358861145876967	0.06420948595768625	-1.51464612998964e-09	1.012029016582995e-09	2.521112252812307e-09	8.285276232652787e-10	-1.402758549835589e-09	-1.328956300817358e-09	-4.739889311569865e-10
0.03	-0.04623469386966247	0.07188823746525155	0.8961972562794692	0.1957596843079643	-0.3191711401326596	-0.5399833628172925	-0.138480758073749	0.07048988161765399	0.0704898816176911	-0.1745254878023899	-0.1717515306169439	-0.06677926644636344	0.007627088301617732	-0.008561683178090317	0.004110873149156842	-0.001547898490638978	0.0151929313973942	-0.006070814994837573	0.01043313463437144	-0.0382298848473573	0.02220556572100905	0.02220556572100789	0.0002524903156901591	0.00261946976382465	0.0154772987093426	0.001806417422898056	0.05561035263769364	-0.08151488146896724	-0.03593906221769541	-0.2100794992206295	0.1978342814391261	-0.009985931780160971	0.001000202023624833	26.84706095747374	-5.83068724596264	6.838113088222346	-23.16830561555732	-543.807700236722	-83.55994860424812	-41.49216702753593	-0.2787313674888963	0.1408318299866991	-0.04944448643496511	0.4718164759256196	-0.1983888630045558	0.340321131757772	-1.228581511884558	0.7008854052733149	0.7008854052735586	-0.006021257339108046	0.09492137569445297	0.5005386535770346	0.05616335259275427	-1.860012847328935e-09	1.405973064223577e-09	2.790947024961327e-09	1.097252604373881e-09	-2.490007151521406e-09	-1.474482536901663e-09	-5.180553057897907e-10
0.04	-0.04633399071142106	0.07193616832465355	0.8961793174294086	0.19593520164225	-0.3192416673112836	-0.5398622595978021	-0.1389233036057919	0.07074691721223549	0.07074691721223496	-0.1745231165428575	-0.1717208361939269	-0.06659974700381349	0.007647918176571035	-0.01125517062362318	0.005454792518720551	-0.002035900597165395	0.01986999834394074	-0.008020841663950383	0.01377786075251793	-0.05017547862233911	0.02915679759250631	0.02915679759250637	0.0002251319610082555	0.003523106562744949	0.02038311111856143	0.002350732702172161	0.05275423802964613	-0.07660278066338563	-0.03519555830021859	-0.2047137951563213	0.1915141527905807	-0.01078344881239962	0.003195683206086222	24.79266508809138	-5.233200729402891	6.866887542941842	-21.63219941094517	-543.8353487791099	-81.97209313954717	-41.49588164051452	-0.2633374726608255	0.1276636801482046	-0.04870237576006137	0.4716487195004111	-0.192363258086107	0.3256707996147288	-1.157637990790614	0.697025237312712	0.6970252373126193	0.002822927373475552	0.08014010113937352	0.4837103554069174	0.05361620006896454	-2.195084263864856e-09	1.815924192772107e-09	3.031772088900054e-09	1.363054633745346e-09	-3.601163712043795e-09	-1.60850434690464e-09	-5.537195559419858e-10
0.05	-0.04645903564805993	0.07199682089370661	0.8961565902524392	0.1961565860393023	-0.3193313564679521	-0.539708079937685	-0.1394824149875545	0.07107234299692479	0.07107234299692991	-0.1745209834226392	-0.1716811732035373	-0.06637252520959698	0.007673817634890888	-0.01371843666341852	0.006645107201290678	-0.002507998801967748	0.02439382372277779	-0.009910060874579693	0.01704198109750368	-0.06156654488833485	0.03590197420766248	0.03590197420766249	0.0001979284198821813	0.004398305088844386	0.02501125984837871	0.002809387808091942	0.04992482471796306	-0.07185498704888491	-0.03443208718618301	-0.1992742544155264	0.1848213937630335	-0.0113837893476651	0.005340920436139033	22.62415048997623	-4.698489450531908	6.902383679052298	-19.96608665764175	-543.8511769251005	-80.56008168697625	-41.50054623176064	-0.2325144157243398	0.1101235233515614	-0.04623387287750422	0.4407905240485863	-0.1861624189358232	0.3243687626412646	-1.117803018080904	0.6593062135428241	0.6593062135428394	-0.006025864288347367	0.08953211742787404	0.4448687152403852	0.0390238892569878	-2.561058153003011e-09	1.436927272878073e-09	3.616593908092773e-09	1.388863242375315e-09	-4.569743664063195e-09	-2.473822563741109e-09	-6.919772407479353e-10
0.06	-0.04660765189432194	0.07206845824179317	0.8961291880274141	0.1964228169055551	-0.3194397300500004	-0.5395217418519868	-0.1401530294466897	0.07146442901578252	0.07146442901578579	-0.1745192291116873	-0.1716330937500351	-0.06610052161138809	0.007703710388950488	-0.01596943254662175	0.007651748325416643	-0.002970910208323697	0.02883929218053239	-0.01175772674059062	0.02020954587052242	-0.07247609409739067	0.04248884441984769	0.04248884441984768	0.0001493701014429545	0.005206399178247006	0.02933947191704256	0.003149391850147433	0.04709541140657045	-0.06710719343438662	-0.03366861607229815	-0.1938347136745587	0.1781286347355467	-0.01198412988289855	0.007486157666381158	20.46051147570522	-4.163901283401886	6.937064964191328	-18.32673380336043	-543.80684920869	-79.13451815134327	-41.50614320948825	-0.2208834413423597	0.09092896845932605	-0.04686501607079395	0.455977335283859	-0.1840525891625738	0.3063596852213196	-1.061334579402556	0.6653639567185288	0.6653639567184416	-0.001448028089487016	0.06671921379998576	0.4237230231761267	0.02988598729589309	-2.92833319888231e-09	1.024711487786458e-09	4.215899801190924e-09	1.404566864868799e-09	-5.532320390461415e-09	-3.369932208233724e-09	-8.345546491182534e-10
